<?xml version="1.0" standalone="no"?>
<!DOCTYPE svg PUBLIC "-//W3C//DTD SVG 20010904//EN"
 "http://www.w3.org/TR/2001/REC-SVG-20010904/DTD/svg10.dtd">
<svg version="1.0" xmlns="http://www.w3.org/2000/svg"
 width="500.000000pt" height="500.000000pt" viewBox="0 0 500.000000 500.000000"
 preserveAspectRatio="xMidYMid meet">

<g transform="translate(0.000000,500.000000) scale(0.100000,-0.100000)"
fill="#000000" stroke="none">
<path d="M2840 3391 c-63 -11 -213 -71 -323 -130 -112 -60 -147 -66 -257 -45
-157 30 -195 29 -289 -5 -86 -32 -235 -108 -365 -187 -81 -48 -100 -66 -64
-56 20 5 21 3 10 -10 -11 -13 -9 -15 13 -15 19 0 25 4 21 14 -3 8 -2 11 3 8
14 -8 9 -45 -6 -45 -7 0 -13 3 -13 8 0 4 -11 7 -25 7 -14 0 -25 -3 -25 -7 0
-10 114 -22 117 -12 2 5 47 8 100 6 54 -1 215 1 358 6 260 9 260 9 334 -15 83
-27 126 -27 230 1 58 16 77 17 195 6 183 -18 425 -16 506 3 128 30 344 47 623
47 l167 0 0 25 c0 29 -14 31 -101 13 -84 -17 -126 0 -212 84 -38 38 -74 65
-79 61 -6 -3 -8 -1 -4 5 3 6 2 13 -4 17 -14 8 -233 45 -239 39 -2 -2 -10 1
-17 7 -8 6 -21 9 -29 5 -9 -3 -14 -2 -11 3 3 5 -9 11 -27 15 -17 4 -124 36
-237 73 -113 36 -214 67 -225 69 -11 1 -33 5 -50 7 -16 3 -50 2 -75 -2z m267
-183 c-3 -8 -6 -5 -6 6 -1 11 2 17 5 13 3 -3 4 -12 1 -19z m323 12 c0 -5 -5
-10 -11 -10 -5 0 -7 5 -4 10 3 6 8 10 11 10 2 0 4 -4 4 -10z m-350 -16 c0 -2
-9 -4 -20 -4 -11 0 -20 4 -20 9 0 5 9 7 20 4 11 -3 20 -7 20 -9z m67 10 c-3
-3 -12 -4 -19 -1 -8 3 -5 6 6 6 11 1 17 -2 13 -5z m-87 -28 c0 -3 -4 -8 -10
-11 -5 -3 -10 -1 -10 4 0 6 5 11 10 11 6 0 10 -2 10 -4z m117 -28 c-3 -8 -6
-5 -6 6 -1 11 2 17 5 13 3 -3 4 -12 1 -19z m253 -58 c0 -5 -6 -10 -14 -10 -8
0 -18 5 -21 10 -3 6 3 10 14 10 12 0 21 -4 21 -10z m67 -26 c-6 -6 -47 9 -47
17 0 5 11 3 25 -3 14 -6 24 -13 22 -14z m93 -8 c0 -11 -19 -15 -25 -6 -3 5 1
10 9 10 9 0 16 -2 16 -4z"/>
<path d="M1501 2944 c0 -11 3 -14 6 -6 3 7 2 16 -1 19 -3 4 -6 -2 -5 -13z"/>
<path d="M1517 2859 c-4 -16 -3 -18 9 -8 7 6 11 15 8 20 -8 13 -11 11 -17 -12z"/>
<path d="M1178 2863 c7 -3 16 -2 19 1 4 3 -2 6 -13 5 -11 0 -14 -3 -6 -6z"/>
<path d="M1575 2861 l-30 -7 34 -7 c44 -9 61 -8 36 4 -14 6 -4 7 30 3 37 -4
46 -3 35 5 -16 12 -58 12 -105 2z"/>
<path d="M2203 2863 c-26 -2 -41 -9 -39 -16 1 -7 1 -9 -1 -5 -6 10 -323 9
-323 -1 0 -17 78 -24 300 -27 164 -2 243 -7 290 -18 36 -9 109 -21 162 -28 82
-10 101 -10 124 3 30 15 233 20 334 7 l55 -7 -35 16 c-36 15 -91 25 -237 42
-62 6 -93 5 -135 -6 -73 -20 -146 -13 -187 18 -30 22 -42 24 -149 25 -64 1
-136 -1 -159 -3z"/>
<path d="M1718 2853 c7 -3 16 -2 19 1 4 3 -2 6 -13 5 -11 0 -14 -3 -6 -6z"/>
<path d="M1808 2843 c7 -3 16 -2 19 1 4 3 -2 6 -13 5 -11 0 -14 -3 -6 -6z"/>
<path d="M2815 2719 c-50 -16 -127 -30 -195 -35 -36 -3 -69 -9 -74 -14 -19
-19 29 -23 163 -14 75 5 256 9 403 9 146 0 269 3 273 6 3 4 -27 12 -67 19 -40
6 -88 16 -107 22 -24 8 -58 7 -120 -2 -74 -10 -95 -10 -147 4 -69 18 -86 18
-129 5z"/>
<path d="M2913 2462 c-7 -26 -31 -28 -49 -4 -13 16 -15 16 -27 0 -7 -9 -31
-18 -52 -20 -21 -2 -40 -9 -43 -16 -3 -11 6 -12 42 -7 31 5 46 4 46 -4 0 -6
-17 -11 -40 -11 l-40 0 0 -65 c0 -62 -1 -65 -24 -65 -26 0 -53 -25 -38 -34 6
-3 23 -1 39 5 17 5 61 9 99 7 66 -3 69 -4 72 -29 4 -35 -21 -54 -69 -52 -43 2
-51 -10 -18 -27 24 -13 73 -5 94 17 8 8 15 30 15 49 0 38 0 38 34 23 20 -9 29
-9 41 1 24 20 18 28 -30 36 -41 6 -58 18 -36 26 5 2 12 27 16 56 l7 52 -41 0
c-23 0 -41 5 -41 10 0 6 23 10 50 10 28 0 50 3 50 8 0 4 -12 18 -26 31 l-25
24 -6 -21z m-78 -92 c-3 -5 -17 -10 -31 -10 -13 0 -24 5 -24 10 0 6 14 10 31
10 17 0 28 -4 24 -10z m73 -1 c-12 -7 -24 -7 -35 0 -15 9 -12 10 17 10 29 0
32 -1 18 -10z m-78 -29 c0 -5 -12 -10 -27 -9 l-28 1 25 8 c14 4 26 8 28 9 1 1
2 -3 2 -9z m80 0 c11 -7 7 -10 -18 -10 -20 0 -31 4 -27 10 8 13 26 13 45 0z
m-71 -47 c9 -17 10 -17 16 0 5 11 18 17 38 17 l31 0 -22 -21 c-20 -18 -30 -19
-77 -14 -30 4 -55 11 -55 14 0 26 55 29 69 4z"/>
<path d="M2648 2438 c-2 -26 -8 -34 -28 -37 -49 -6 -48 -41 1 -41 l29 0 0
-105 c0 -140 18 -138 22 3 l3 107 28 3 c35 4 37 32 2 32 -18 0 -25 5 -25 19 0
53 -27 69 -32 19z"/>
<path d="M3380 2450 c0 -18 -7 -20 -73 -20 -43 0 -78 -5 -85 -12 -14 -14 -15
-57 -2 -78 9 -13 11 -13 20 0 5 8 10 23 10 33 0 28 45 38 169 35 l116 -3 3
-37 c2 -26 8 -38 18 -38 12 0 14 11 12 48 l-3 47 -67 3 c-55 2 -70 7 -78 22
-14 26 -40 26 -40 0z"/>
<path d="M2185 2448 c-10 -26 0 -303 10 -301 6 2 11 41 13 88 1 47 6 85 10 85
4 0 34 -29 67 -65 48 -52 65 -63 82 -59 12 4 27 12 33 19 9 11 4 18 -22 31
-46 24 -118 74 -118 82 0 4 19 15 41 24 24 10 39 23 37 30 -9 25 -40 20 -72
-11 -39 -38 -56 -27 -56 35 0 43 -15 68 -25 42z"/>
<path d="M1580 2321 l0 -118 -31 -7 c-17 -3 -44 -6 -60 -6 l-29 0 0 69 c0 41
-5 73 -11 77 -18 11 -26 -14 -19 -59 3 -23 3 -58 -1 -77 -4 -19 -4 -39 1 -43
4 -5 42 -3 83 3 42 7 116 11 166 8 l90 -4 -1 85 c-1 47 -6 92 -11 99 -21 27
-27 9 -21 -58 7 -69 7 -70 -20 -80 -15 -5 -45 -10 -68 -10 l-40 0 2 108 c3
132 3 132 -15 132 -12 0 -15 -20 -15 -119z"/>
<path d="M3314 2358 c-51 -49 -53 -74 -3 -46 29 17 59 15 59 -3 0 -13 -115
-67 -157 -75 -35 -7 -40 -13 -22 -31 12 -12 47 -5 95 20 l29 15 -3 -49 c-5
-60 -1 -61 98 -52 l75 8 3 42 c4 49 -1 51 -103 55 l-60 3 36 23 c20 12 41 22
46 22 5 0 36 -20 69 -45 57 -43 91 -53 128 -39 26 10 18 20 -26 34 -24 7 -70
26 -103 42 -55 28 -58 31 -40 44 10 8 22 14 27 14 4 0 8 6 8 14 0 15 -30 26
-72 26 -14 0 -28 5 -30 12 -3 7 -24 -6 -54 -34z m99 -19 c-7 -7 -19 -8 -30 -4
-16 7 -15 9 7 15 30 8 38 4 23 -11z m50 -135 c3 -3 3 -12 0 -20 -4 -10 -23
-14 -64 -14 -52 0 -59 2 -59 20 0 18 7 20 58 20 32 0 61 -3 65 -6z"/>
<path d="M2022 2358 c-7 -7 -12 -18 -12 -25 0 -11 13 -13 61 -7 60 7 61 6 50
-14 -15 -28 -81 -81 -108 -88 -26 -7 -31 -32 -9 -40 23 -9 74 24 107 69 42 56
55 86 43 96 -16 15 -119 22 -132 9z"/>
<path d="M2780 2205 c-21 -11 -22 -15 -8 -20 15 -6 78 19 78 30 0 10 -46 4
-70 -10z"/>
<path d="M2440 1890 c0 -49 -3 -61 -20 -70 -25 -13 -60 -4 -60 16 0 8 -4 14
-10 14 -5 0 -10 -9 -10 -19 0 -33 59 -42 98 -15 19 13 22 24 22 75 0 33 -4 59
-10 59 -6 0 -10 -27 -10 -60z"/>
<path d="M2543 1933 c-7 -2 -13 -13 -13 -23 0 -24 15 -33 65 -40 49 -6 60 -34
20 -52 -21 -9 -32 -8 -60 5 -36 17 -50 6 -16 -13 31 -16 77 -12 102 9 34 28
16 53 -45 65 -63 11 -61 38 4 47 l45 6 -45 1 c-25 0 -51 -2 -57 -5z"/>
<path d="M2152 1861 c2 -7 7 -12 11 -12 12 1 9 15 -3 20 -7 2 -11 -2 -8 -8z"/>
<path d="M2825 1861 c-6 -11 9 -23 19 -14 9 9 7 23 -3 23 -6 0 -12 -4 -16 -9z"/>
</g>
</svg>
