<?xml version="1.0" standalone="no"?>
<!DOCTYPE svg PUBLIC "-//W3C//DTD SVG 20010904//EN"
 "http://www.w3.org/TR/2001/REC-SVG-20010904/DTD/svg10.dtd">
<svg version="1.0" xmlns="http://www.w3.org/2000/svg"
 width="692.000000pt" height="535.000000pt" viewBox="0 0 692.000000 535.000000"
 preserveAspectRatio="xMidYMid meet">

<g transform="translate(0.000000,535.000000) scale(0.100000,-0.100000)"
fill="#000000" stroke="none">
<path d="M0 2675 l0 -2675 3460 0 3460 0 0 2675 0 2675 -3460 0 -3460 0 0
-2675z m4884 1609 c56 -15 121 -37 146 -50 121 -61 238 -194 259 -294 6 -28
11 -96 11 -152 l0 -100 -277 4 c-190 2 -285 7 -299 15 -14 8 -24 26 -28 53 -5
30 -20 56 -62 102 l-57 61 6 56 c8 88 66 293 89 314 29 24 93 22 212 -9z
m-1596 -9 c10 -10 -136 -663 -233 -1045 -111 -436 -195 -618 -337 -726 -67
-50 -205 -119 -308 -154 -73 -25 -147 -24 -164 2 -7 13 7 92 62 325 39 169
133 574 207 898 75 325 143 618 152 653 l16 64 298 -4 c181 -2 302 -7 307 -13z
m1008 2 c2 -7 -16 -111 -41 -230 -25 -120 -45 -240 -45 -267 0 -115 31 -134
345 -215 368 -95 509 -167 578 -294 120 -220 -29 -607 -304 -787 -115 -75
-313 -154 -386 -154 -31 0 -33 2 -33 33 0 39 32 238 60 367 25 122 25 176 0
218 -27 43 -55 54 -305 117 -334 85 -441 130 -541 230 -74 74 -89 118 -89 260
1 224 120 447 305 570 169 112 437 202 456 152z m-2326 -1350 c14 -109 4 -219
-36 -392 -35 -148 -59 -203 -93 -212 -42 -10 -147 13 -224 50 -142 68 -228
194 -248 363 -13 106 0 215 27 245 29 32 70 37 320 38 l241 1 13 -93z m1967
-6 c13 -86 33 -115 100 -153 69 -39 86 -64 78 -115 -9 -48 -85 -357 -90 -361
-8 -8 -286 42 -355 64 -80 25 -177 78 -223 122 -41 39 -95 157 -107 232 -5 36
-10 113 -10 173 l0 107 298 0 298 0 11 -69z m-2677 -1833 c0 -64 4 -119 8
-122 5 -3 47 -8 93 -12 138 -11 125 -23 -25 -24 l-138 0 3 149 c3 111 8 152
19 166 14 16 15 16 27 -11 7 -17 12 -77 13 -146z m400 5 c0 -109 -10 -163 -29
-163 -32 0 -41 255 -11 310 l13 25 13 -30 c8 -18 13 -74 14 -142z m255 156
l80 -1 -82 -13 c-91 -14 -146 -40 -151 -72 -4 -25 12 -32 90 -40 101 -10 104
-49 4 -62 -68 -9 -84 -23 -94 -81 -5 -30 -13 -46 -24 -48 -26 -5 -38 57 -38
202 l0 129 68 -6 c37 -4 103 -7 147 -8z m384 0 l76 -1 -65 -10 c-71 -10 -128
-34 -144 -60 -16 -27 4 -40 80 -52 37 -6 69 -17 71 -23 6 -16 -42 -39 -96 -46
-24 -3 -48 -10 -53 -15 -31 -31 52 -92 125 -92 20 0 39 -4 42 -10 4 -6 -37
-10 -114 -10 l-121 0 0 166 0 167 61 -7 c34 -3 96 -7 138 -7z m396 -94 c8 -85
-1 -186 -20 -211 -11 -16 -13 -16 -26 7 -18 32 -18 242 0 284 12 28 13 29 26
12 7 -10 17 -52 20 -92z m325 92 c28 -9 36 -18 38 -41 4 -32 -3 -32 -87 -1
-47 17 -80 14 -118 -11 -28 -17 -30 -40 -5 -53 10 -5 50 -14 89 -19 79 -11
116 -32 134 -75 30 -71 -29 -117 -151 -117 -90 0 -140 23 -140 65 0 32 12 31
69 -2 74 -43 181 -27 181 27 0 21 -50 40 -109 40 -96 0 -181 95 -138 153 29
41 161 60 237 34z m540 -97 c36 -72 60 -134 74 -192 5 -22 3 -28 -11 -28 -9 0
-30 12 -46 28 -25 24 -36 27 -94 27 -59 0 -67 -3 -87 -27 -49 -62 -61 -17 -22
84 33 89 93 205 108 211 17 6 32 -14 78 -103z m791 52 c19 -25 50 -80 70 -121
l36 -75 50 105 c28 57 62 115 76 128 l25 23 11 -38 c14 -50 14 -208 0 -256 -5
-22 -16 -38 -24 -38 -8 0 -15 1 -16 3 0 1 -6 38 -12 82 l-12 80 -43 -77 c-23
-42 -47 -80 -52 -83 -17 -11 -36 11 -82 93 l-43 77 -5 -77 c-5 -81 -20 -112
-42 -90 -17 17 -24 233 -9 283 14 47 27 44 72 -19z m408 -35 c13 -136 -11
-273 -39 -227 -25 40 -26 253 -1 299 19 35 31 13 40 -72z m640 82 l76 -1 -64
-10 c-77 -11 -126 -30 -139 -55 -17 -31 2 -45 74 -57 37 -6 69 -17 71 -23 6
-16 -42 -39 -96 -46 -53 -7 -70 -21 -55 -44 21 -33 63 -56 113 -61 97 -9 62
-22 -58 -22 l-121 0 0 166 0 167 61 -7 c34 -3 96 -7 138 -7z m-1261 -15 c23
-9 44 -26 51 -41 17 -36 7 -40 -29 -9 -18 14 -44 29 -58 32 -15 3 -36 7 -46 9
-11 2 -35 -2 -53 -10 -29 -12 -34 -19 -31 -42 3 -31 38 -47 121 -58 64 -8 87
-32 87 -89 0 -66 -21 -85 -101 -93 -82 -7 -134 2 -160 28 -47 47 -10 68 63 34
61 -29 85 -31 133 -11 65 27 37 62 -58 73 -63 7 -98 24 -126 59 -21 26 -28 79
-13 100 24 36 150 47 220 18z m722 -91 c6 -53 16 -107 21 -120 13 -34 64 -60
131 -68 125 -15 112 -23 -36 -24 l-149 -1 7 61 c3 34 6 104 6 155 0 52 2 94 4
94 2 0 9 -44 16 -97z"/>
<path d="M3448 1094 c-22 -51 -16 -66 26 -66 50 0 71 44 46 93 -19 35 -49 23
-72 -27z"/>
</g>
</svg>
