<?xml version="1.0" standalone="no"?>
<!DOCTYPE svg PUBLIC "-//W3C//DTD SVG 20010904//EN"
 "http://www.w3.org/TR/2001/REC-SVG-20010904/DTD/svg10.dtd">
<svg version="1.0" xmlns="http://www.w3.org/2000/svg"
 width="500.000000pt" height="500.000000pt" viewBox="0 0 500.000000 500.000000"
 preserveAspectRatio="xMidYMid meet">

<g transform="translate(0.000000,500.000000) scale(0.100000,-0.100000)"
fill="#000000" stroke="none">
<path d="M3230 3386 c0 -36 -4 -76 -10 -90 -6 -17 -6 -26 0 -26 17 0 30 47 30
106 l0 54 70 0 70 0 0 -63 c0 -70 21 -115 40 -87 14 22 12 33 -5 26 -13 -4
-15 7 -15 69 l0 75 -90 0 -90 0 0 -64z"/>
<path d="M3942 3427 c-7 -8 -10 -22 -6 -31 5 -14 -6 -16 -100 -16 -99 0 -106
-1 -106 -20 0 -19 7 -20 190 -20 222 0 225 -2 138 -86 -87 -83 -75 -81 -169
-25 -68 41 -85 48 -92 36 -13 -24 -11 -26 64 -70 l72 -43 -49 -31 c-27 -17
-73 -41 -101 -53 -36 -14 -53 -28 -53 -39 0 -10 4 -20 9 -23 8 -6 136 55 202
95 l35 23 102 -62 c83 -50 103 -58 112 -47 16 19 8 28 -48 61 -26 15 -64 38
-85 51 l-39 24 71 74 c42 43 71 81 71 94 0 16 6 21 25 21 18 0 25 5 25 20 0
19 -7 20 -102 20 -101 0 -102 0 -128 31 -22 27 -27 29 -38 16z"/>
<path d="M3270 3404 c0 -3 9 -17 20 -32 l21 -25 -26 -27 c-33 -35 -19 -48 15
-15 l27 26 17 -26 c9 -14 22 -23 27 -19 6 4 2 16 -12 30 -22 24 -22 26 -6 53
19 32 21 41 9 41 -4 0 -15 -12 -23 -27 l-17 -26 -17 26 c-16 25 -35 36 -35 21z"/>
<path d="M3220 3180 c0 -5 21 -11 48 -12 l47 -1 -45 -6 -45 -6 -3 -72 c-2 -46
1 -73 8 -73 6 0 10 27 10 65 l0 65 35 0 35 0 0 -65 c0 -37 4 -65 10 -65 6 0
10 29 10 66 l0 65 38 -3 c37 -3 37 -3 40 -53 3 -38 -1 -52 -14 -62 -17 -12
-16 -13 4 -13 21 0 22 5 22 74 l0 75 -47 4 -48 3 53 2 c28 1 52 7 52 12 0 6
-42 10 -105 10 -63 0 -105 -4 -105 -10z"/>
<path d="M3256 3112 c-2 -4 4 -13 14 -20 11 -7 21 -8 25 -2 3 5 -3 14 -14 20
-11 5 -22 6 -25 2z"/>
<path d="M3350 3110 c0 -5 9 -14 20 -20 22 -12 27 -1 8 18 -14 14 -28 16 -28
2z"/>
<path d="M3260 3055 c7 -8 19 -15 27 -15 13 0 13 3 3 15 -7 8 -19 15 -27 15
-13 0 -13 -3 -3 -15z"/>
<path d="M3363 3053 c9 -9 20 -13 24 -9 4 4 1 11 -7 16 -25 16 -35 11 -17 -7z"/>
<path d="M1604 3008 c-17 -27 -14 -111 6 -154 27 -61 57 -58 85 9 17 42 20
109 5 138 -12 22 -84 27 -96 7z"/>
<path d="M3244 2932 c-38 -7 -38 -22 -1 -22 20 0 37 -4 37 -10 0 -5 -9 -10
-20 -10 -27 0 -25 -18 3 -23 16 -3 13 -5 -10 -6 -18 0 -33 -5 -33 -11 0 -5 15
-11 33 -11 24 -1 26 -3 9 -6 -13 -3 -21 -10 -19 -16 2 -7 -2 -20 -11 -30 -24
-27 -5 -33 23 -7 25 23 25 23 25 2 0 -32 18 -36 22 -5 4 37 38 45 38 9 0 -14
5 -28 10 -31 6 -4 10 7 10 24 0 17 5 31 10 31 6 0 10 -6 10 -14 0 -17 28 -41
37 -32 3 3 -2 15 -12 26 -10 11 -14 20 -9 20 5 0 15 9 21 20 19 29 1 70 -26
63 -12 -3 -21 -1 -21 6 0 6 14 11 30 11 31 0 43 19 13 21 -77 3 -153 3 -169 1z
m96 -32 c0 -5 -7 -10 -15 -10 -8 0 -15 5 -15 10 0 6 7 10 15 10 8 0 15 -4 15
-10z m-7 -37 c-7 -2 -19 -2 -25 0 -7 3 -2 5 12 5 14 0 19 -2 13 -5z m60 0 c-7
-2 -19 -2 -25 0 -7 3 -2 5 12 5 14 0 19 -2 13 -5z m-60 -30 c-7 -2 -19 -2 -25
0 -7 3 -2 5 12 5 14 0 19 -2 13 -5z m60 0 c-7 -2 -19 -2 -25 0 -7 3 -2 5 12 5
14 0 19 -2 13 -5z"/>
<path d="M3790 2775 c0 -22 -4 -25 -35 -25 -27 0 -35 -4 -35 -18 0 -10 5 -23
12 -30 10 -10 7 -83 -15 -307 -1 -14 5 -21 19 -23 24 -3 26 7 44 228 6 76 7
69 9 -72 l1 -158 25 0 25 0 0 164 0 165 33 3 c24 2 33 8 35 26 3 19 -1 22 -32
22 -32 0 -36 3 -36 25 0 20 -5 25 -25 25 -20 0 -25 -5 -25 -25z"/>
<path d="M4040 2725 l0 -75 -60 0 c-53 0 -60 -2 -60 -20 0 -19 7 -20 125 -20
l125 0 0 -40 0 -40 -120 0 c-113 0 -120 -1 -120 -20 0 -19 7 -20 120 -20 l120
0 0 -39 0 -40 -129 -3 -129 -3 -6 85 c-13 162 -16 180 -39 180 -19 0 -20 -4
-13 -87 3 -49 9 -116 12 -150 l7 -61 154 -1 c104 -1 160 2 169 10 11 9 14 44
14 150 0 132 -1 139 -20 139 -11 0 -20 -5 -20 -11 0 -6 -17 -9 -42 -7 l-43 3
-3 73 c-3 64 -5 72 -22 72 -18 0 -20 -7 -20 -75z"/>
<path d="M3934 2756 c-7 -17 36 -86 54 -86 23 0 24 28 0 64 -24 37 -45 46 -54
22z"/>
<path d="M4147 2734 c-29 -35 -30 -64 -4 -64 18 0 71 76 62 89 -11 19 -29 12
-58 -25z"/>
<path d="M3220 2680 c0 -5 7 -10 15 -10 22 0 18 -17 -6 -23 -14 -4 -18 -10
-13 -19 8 -13 7 -69 -2 -100 -3 -10 -1 -18 5 -18 5 0 14 19 19 43 l10 42 1
-49 c1 -53 16 -54 24 -1 l4 30 2 -32 1 -33 78 1 c42 1 65 4 50 6 -34 5 -37 30
-5 36 l22 4 -22 2 c-28 1 -31 21 -4 21 11 0 23 5 26 10 4 6 -17 10 -54 10 -34
0 -61 -4 -61 -10 0 -5 12 -10 26 -10 30 0 22 -20 -9 -21 -22 -1 -22 -1 1 -7
30 -9 29 -26 -2 -30 -22 -3 -25 1 -31 42 -4 25 -11 46 -16 46 -5 0 -9 5 -9 10
0 6 7 10 15 10 8 0 15 5 15 10 0 6 -7 10 -15 10 -8 0 -15 5 -15 10 0 6 7 10
15 10 8 0 15 5 15 10 0 6 -18 10 -40 10 -22 0 -40 -4 -40 -10z"/>
<path d="M3310 2655 l0 -35 55 0 55 0 0 35 0 35 -55 0 -55 0 0 -35z m90 -6 c0
-17 -5 -20 -32 -17 -22 2 -34 9 -36 21 -3 14 4 17 32 17 30 0 36 -4 36 -21z"/>
<path d="M1595 2673 c-313 -17 -515 -161 -404 -288 18 -20 46 -43 63 -52 l31
-16 -72 -22 c-123 -38 -197 -92 -209 -153 -6 -29 -1 -37 38 -77 51 -51 70 -56
86 -21 36 79 268 138 542 138 249 0 453 -59 521 -151 l22 -30 29 20 c39 29 71
93 63 129 -18 84 -195 161 -430 189 -126 15 -352 13 -470 -4 -55 -8 -103 -15
-107 -15 -5 0 -8 13 -8 29 0 22 10 38 41 65 140 119 534 116 658 -5 22 -21 41
-49 43 -64 l3 -27 42 31 c100 73 94 163 -14 232 -99 62 -294 101 -468 92z"/>
<path d="M1377 2059 c-245 -32 -430 -105 -463 -185 -14 -32 -13 -39 3 -72 16
-33 73 -82 94 -82 5 0 9 8 9 18 0 10 12 30 28 44 98 92 369 146 680 135 299
-11 507 -73 554 -165 l16 -33 46 44 c57 54 61 89 17 140 -60 67 -254 134 -456
157 -107 12 -432 11 -528 -1z"/>
<path d="M2947 1953 c-4 -3 -6 -49 -5 -102 l2 -96 5 95 6 95 50 6 50 6 -51 1
c-28 1 -54 -1 -57 -5z"/>
<path d="M3073 1953 c9 -2 23 -2 30 0 6 3 -1 5 -18 5 -16 0 -22 -2 -12 -5z"/>
<path d="M3140 1945 c27 -14 36 -13 25 4 -3 6 -16 11 -28 11 -21 -1 -21 -1 3
-15z"/>
<path d="M3050 1920 c0 -5 5 -10 10 -10 6 0 10 5 10 10 0 6 -4 10 -10 10 -5 0
-10 -4 -10 -10z"/>
<path d="M3162 1833 c-2 -101 2 -95 -72 -106 -14 -3 -3 -5 23 -6 31 -1 49 4
53 12 3 8 3 54 1 103 l-3 89 -2 -92z"/>
<path d="M3070 1896 c-25 -7 -58 -20 -75 -29 -39 -21 -24 -22 17 -1 17 9 52
19 77 23 25 3 42 9 36 13 -5 3 -30 0 -55 -6z"/>
<path d="M3064 1855 c-4 -8 -16 -15 -28 -15 -16 0 -18 -2 -7 -9 12 -8 12 -12
2 -25 -15 -18 -1 -22 16 -5 8 8 19 5 42 -12 24 -18 34 -20 43 -11 9 9 7 12 -8
12 -29 0 -54 31 -47 58 6 25 -4 30 -13 7z"/>
<path d="M2942 1739 c3 -9 22 -14 59 -15 l54 -2 -45 7 c-25 3 -51 10 -59 15
-9 6 -12 5 -9 -5z"/>
</g>
</svg>
